<svg width="512" height="512" viewBox="0 0 512 512" fill="none" xmlns="http://www.w3.org/2000/svg">
<rect width="512" height="512" rx="100" fill="#FAF9F6"/>
<path d="M241.946 495.727C241.514 495.466 237.698 495.035 233.535 494.775C229.288 494.429 225.903 493.914 225.903 493.568C225.903 493.307 230.675 489.767 236.566 485.881C283.554 454.269 310.259 433.886 331.152 413.934C358.636 387.591 374.849 361.248 378.58 337.064C381.093 321.082 374.764 304.07 361.411 290.853C346.062 275.477 321.446 263.819 281.65 252.936C241.769 241.969 230.236 236.178 230.236 226.763C230.236 217.693 242.98 208.192 274.889 193.684C323.01 171.834 335.492 164.662 352.568 148.948C356.731 145.061 360.37 141.951 360.632 141.951C360.802 141.951 365.489 147.65 371.04 154.731C376.505 161.728 381.964 168.639 383.174 170.022L385.256 172.61L385.773 170.452C386.035 169.246 388.024 157.066 390.198 143.242C392.364 129.51 395.316 111.109 396.697 102.476C398.169 93.836 399.295 86.5856 399.295 86.4092C399.295 86.24 390.799 87.707 380.484 89.8652C370.077 91.9387 350.31 95.7403 336.441 98.4133C322.656 101.002 310.606 103.421 309.651 103.767C308.348 104.281 308.957 104.888 312.688 106.961C317.545 109.465 343.032 124.58 343.811 125.271C345.021 126.392 323.959 140.562 312.688 146.176C294.224 155.415 276.793 162.242 231.539 177.787C182.639 194.63 170.589 200.505 161.569 211.733C155.764 218.814 154.808 226.932 158.971 233.583C163.651 240.925 174.837 249.219 187.58 254.833C190.271 256.039 201.28 260.278 212.027 264.334C238.038 274.095 249.479 279.625 256.07 285.754C263.009 292.144 265.26 296.721 264.743 303.717C264.226 311.49 261.451 316.413 252.347 325.483C238.385 339.391 225.818 346.733 155.679 381.624C128.28 395.272 99.9322 409.434 92.7321 413.235L79.7264 420.056L76.6042 416.776C71.1386 410.993 60.6534 397.345 54.7559 388.36C42.1822 368.929 32.9926 348.976 25.6225 324.615C18.5144 301.037 16.086 284.11 16.001 257.076C15.9161 225.38 21.1197 198.255 32.7306 169.147C34.6351 164.394 36.7166 159.562 37.4104 158.349C38.0192 157.143 39.7538 153.511 41.2264 150.147C50.154 129.933 67.4996 106.186 88.909 84.8505C126.191 47.6251 175.785 24.0471 231.008 17.1353C245.401 15.3227 280.34 15.7529 293.516 17.9111C311.81 20.9368 334.869 27.4114 350.48 34.0623C380.477 46.7576 403.543 62.2176 426.255 84.8505C439.778 98.4133 445.675 105.494 455.389 119.918C484.43 163.279 498.568 215.443 495.616 268.911C493.103 313.133 481.4 351.05 458.511 388.014C451.318 399.588 448.018 404.081 436.485 417.467C416.542 440.7 392.959 458.579 364.179 472.311C340.511 483.624 318.231 490.359 292.22 493.907C282.768 495.289 244.099 496.587 241.932 495.72L241.946 495.727Z" fill="#FF5600"/>
</svg>
