<svg width="378" height="376" viewBox="0 0 378 376" fill="none" xmlns="http://www.w3.org/2000/svg">
<path d="M79.0749 375.199C60.2854 373.513 30.8279 369.224 15.414 366.505C2.74775 364.302 1.65307 363.776 0.82653 359.497L0 354.828L28.3483 347.947C68.2458 338.209 115.604 317.175 150.658 302.895C242.912 265.115 270.517 233.173 270.517 211.885C270.517 204.74 264.75 196.436 256.024 190.598C251.661 187.742 239.507 181.904 229.226 177.614C218.944 173.325 207.41 168.003 203.679 165.927C188.567 157.096 186.695 138.148 199.632 123.858C204.463 118.536 220.816 108.409 246.223 94.909C271.301 81.6622 282.683 74.4012 295.14 63.7469L304.953 55.3056L290.46 50.6371L275.967 45.8316V40.8996V35.9676L299.022 27.1364C311.643 22.3309 332.359 14.1531 344.98 9.22111C358.84 3.63575 369.906 0 373.017 0H378V6.88158C377.848 10.5173 376.596 19.7384 374.889 27.2629C373.333 34.7978 369.287 54.1359 366.163 70.4915L360.244 99.9674H354.477C349.027 99.9674 348.243 99.451 343.576 92.5694C334.382 79.0697 335.634 79.3226 327.679 88.5437C317.714 100.357 298.706 116.197 279.85 128.4C270.808 134.375 262.865 140.087 262.246 141.12C259.906 144.366 265.673 147.875 288.424 157.086C314.603 167.603 328.147 176.561 339.997 190.967C354.326 208.618 360.409 227.841 358.853 251.468C356.83 282.366 344.057 305.087 316.323 327.155C287.653 350.002 267.343 364.671 204.299 372.723C185.73 375.062 172.989 375.579 136.46 375.968C111.825 376.095 85.9537 375.842 79.058 375.189L79.0749 375.199Z" fill="#FF5600"/>
<path d="M82.2603 254.771C43.4125 247.892 12.3277 223.269 2.9635 191.455C-1.41941 176.58 -0.820816 150.205 3.96642 135.006C26.6735 63.3699 131.475 16.6813 235.096 31.8678C256.622 35.0608 259 36.1901 259 42.2646C259 48.495 256.412 49.78 223.338 60.4884C150.009 83.8392 103.188 114.056 96.622 142.365C93.63 154.683 109.367 172.271 130.893 180.903C136.068 182.979 149.427 187.458 160.376 190.819C186.868 198.971 191.267 202.657 191.267 216.727C191.267 222.477 190.07 228.876 188.485 231.433C184.701 237.183 173.541 245.023 163.174 249.346C144.85 256.705 107.992 259.262 82.2765 254.784L82.2603 254.771Z" fill="#FF5600"/>
</svg>
