<svg width="1063" height="234" viewBox="0 0 1063 234" fill="none" xmlns="http://www.w3.org/2000/svg">
<path d="M683.049 233.502C672.897 232.452 656.98 229.783 648.652 228.091C641.808 226.72 641.217 226.392 640.77 223.729L640.323 220.824L655.641 216.541C677.198 210.481 702.786 197.391 721.727 188.504C771.574 164.992 786.489 145.113 786.489 131.865C786.489 127.418 783.373 122.25 778.658 118.617C776.301 116.839 769.734 113.206 764.179 110.537C758.623 107.867 752.391 104.555 750.376 103.263C742.21 97.7673 741.198 85.9751 748.189 77.0818C750.799 73.7698 759.635 67.4671 773.362 59.0657C786.913 50.8217 793.063 46.3029 799.793 39.6722L805.096 34.4189L797.265 31.5135L789.434 28.5228V25.4535V22.3841L801.891 16.8881C808.711 13.8974 819.903 8.80804 826.723 5.73867C834.212 2.26268 840.191 0 841.872 0H844.564V4.28269C844.482 6.54536 843.806 12.284 842.884 16.9668C842.043 21.6561 839.856 33.6909 838.169 43.8697L834.971 62.2138H831.855C828.91 62.2138 828.486 61.8924 825.965 57.6097C820.997 49.2083 821.673 49.3657 817.375 55.1043C811.991 62.4564 801.72 72.3138 791.532 79.9085C786.646 83.6272 782.355 87.1819 782.02 87.8246C780.756 89.8446 783.872 92.0286 796.165 97.7607C810.31 104.306 817.628 109.881 824.031 118.846C831.773 129.832 835.059 141.794 834.219 156.499C833.126 175.728 826.224 189.868 811.239 203.601C795.748 217.82 784.774 226.95 750.71 231.96C740.677 233.416 733.793 233.738 714.056 233.98C700.745 234.059 686.766 233.902 683.04 233.495L683.049 233.502Z" fill="#FF5600"/>
<path d="M300.904 233.179C262.954 227.012 239.788 205.796 231.569 169.743L229.297 159.606L228.95 88.8582L228.687 18H257.538H286.482V76.8379C286.482 141.105 286.745 144.142 291.557 155.534C296.632 167.343 306.334 175.283 319.01 178.006C330.466 180.406 345.065 176.021 353.022 167.657C354.768 165.884 357.394 161.591 358.877 158.249C364.3 146.127 364.3 145.915 364.3 78.9332V18.0085H392.633H420.874L421.577 73.1902C422.45 148.332 421.754 161.812 415.984 179.685C407.062 207.068 386.515 225.146 356.698 231.83C347.606 233.917 310.621 234.757 300.912 233.188L300.904 233.179Z" fill="#FAF9F6"/>
<path d="M77.1941 232.731C48.2601 228.809 28.1616 220.035 15.8266 205.789C6.11626 194.535 1.84434 182.351 0.583256 162.842L0 152.728L30.4867 152.937L60.9734 153.247L61.5567 157.999C62.4315 163.99 64.2759 167.803 68.4532 172.035C76.3192 180.088 92.8237 184.32 112.922 183.39C129.915 182.56 138.262 179.778 143.314 173.376C146.908 168.834 147.295 166.563 145.253 162.742C141.178 155.409 134.479 153.448 97.3872 148.705C45.7301 141.993 29.2256 136.73 15.8266 122.686C6.69951 113.082 3.2 103.068 3.2 86.141C3.2 51.6577 25.3399 28.7386 65.9232 21.2051C96.2207 15.5235 139.72 17.5933 162.83 25.8476C177.884 31.3196 192.055 42.4649 197.691 53.518C201.671 61.1605 204.193 73.1354 204.193 83.7695V92.8533H174.093C150.786 92.8533 143.898 92.5432 143.606 91.6131C140.981 80.979 137.971 76.2275 131.176 72.6158C114.278 63.532 79.8109 65.7024 69.4227 76.437C65.0562 81.0795 65.4424 85.5209 70.6838 89.1326C74.7587 91.9231 83.2079 93.6745 107.098 96.465C134.093 99.5656 151.472 102.457 161.474 105.339C189.241 113.183 202.065 124.747 207.204 146.527C209.923 157.982 209.435 178.429 206.235 189.063C199.338 211.672 180.989 225.197 148.847 231.39C134.085 234.18 93.7931 234.901 77.1862 232.731H77.1941Z" fill="#FAF9F6"/>
<path d="M939.264 232.385C917.445 228.127 898.633 218.052 885.157 203.196C869.549 186.056 861.882 164.658 860.528 134.332C858.883 99.2247 867.801 69.8341 886.905 48.2253C904.552 28.1763 930.441 18 964.09 18C985.909 18 1001.23 21.3218 1017.23 29.6349C1026.25 34.3057 1028.38 35.9666 1036.62 44.9035C1046.71 55.8132 1052.33 65.1548 1056.5 78.0375C1061.06 91.9571 1061.93 98.4996 1062.51 121.145L1063 142.645H991.726H920.358L921.908 148.15C927.143 167.263 940.335 179.412 958.95 182.321C968.742 183.881 976.306 182.532 985.909 177.439C993.473 173.393 1000.75 165.805 1002.79 159.785C1003.46 157.812 1004.53 156.05 1005.01 155.839C1005.6 155.628 1018.59 155.628 1034.01 155.94L1061.84 156.463V160.721C1061.84 167.988 1058.16 182.009 1053.89 190.845C1047.98 202.893 1037.21 214.317 1025.48 220.758C1015.29 226.264 1004.04 230.311 992.316 232.494C981.454 234.568 949.938 234.467 939.272 232.393L939.264 232.385ZM1003.65 96.4256C994.245 69.9437 966.995 59.2447 942.751 72.4308C934.124 77.1016 926.269 86.1397 922.585 95.3885L921.231 99.0223H962.925H1004.62L1003.65 96.4256Z" fill="#FAF9F6"/>
<path d="M441.602 128.616C441.602 70.6063 441.894 23.241 442.383 23.241C442.769 23.1373 456.755 23.025 473.46 22.9213L503.765 22.7053V32.8143V42.9233L506.682 39.0956C510.955 33.35 521.637 25.7898 530.964 21.9623C538.635 18.8777 540.29 18.558 554.276 18.1347C571.856 17.599 576.713 18.4543 588.073 24.5197C603.028 32.2872 612.647 45.9127 617.503 66.3553C619.151 73.1638 619.639 79.3414 620.026 96.4748L620.609 117.98L590.596 117.764L560.583 117.444L559.999 106.264C559.321 94.3407 558.06 89.6578 553.59 83.9121C550.097 79.2291 542.324 75.3929 536.593 75.3929C525.91 75.3929 513.864 84.0158 509.008 95.2998C504.246 106.48 503.86 112.433 503.765 175.774V234H472.688H441.61V128.625L441.602 128.616Z" fill="#FAF9F6"/>
<path d="M684.654 158.046C663.719 153.779 646.967 138.505 641.92 118.771C639.558 109.544 639.881 93.1837 642.461 83.7555C654.698 39.3197 711.177 10.3587 767.019 19.7789C778.62 21.7595 779.901 22.46 779.901 26.2281C779.901 30.0928 778.507 30.8898 760.683 37.5323C721.165 52.0168 695.933 70.7605 692.394 88.3207C690.782 95.9615 699.262 106.871 710.863 112.225C713.652 113.514 720.851 116.291 726.752 118.377C741.029 123.433 743.399 125.72 743.399 134.447C743.399 138.014 742.754 141.983 741.9 143.57C739.861 147.136 733.847 151.999 728.26 154.681C718.385 159.246 698.521 160.832 684.663 158.054L684.654 158.046Z" fill="#FF5600"/>
</svg>
